<?xml version="1.0" encoding="utf-8"?>
<!-- Generator: Adobe Illustrator 27.2.0, SVG Export Plug-In . SVG Version: 6.00 Build 0)  -->
<svg version="1.0" id="Layer_1" xmlns="http://www.w3.org/2000/svg" xmlns:xlink="http://www.w3.org/1999/xlink" x="0px" y="0px"
	 viewBox="0 0 446.6 446.6" enable-background="new 0 0 446.6 446.6" xml:space="preserve">
<g>
	<defs>
		<rect id="SVGID_1_" x="-96.7" y="-16.7" width="640" height="480"/>
	</defs>
	<clipPath id="SVGID_00000089538711317648931420000000329142632540709564_">
		<use xlink:href="#SVGID_1_"  overflow="visible"/>
	</clipPath>
	<path clip-path="url(#SVGID_00000089538711317648931420000000329142632540709564_)" d="M336.8,446.6H109.8
		C49.2,446.6,0,397.4,0,336.8V109.8C0,49.2,49.2,0,109.8,0h226.9c60.6,0,109.8,49.2,109.8,109.8v226.9
		C446.6,397.4,397.4,446.6,336.8,446.6"/>
	<path clip-path="url(#SVGID_00000089538711317648931420000000329142632540709564_)" fill="#25F4EE" d="M185.6,190.1v-13.5
		c-4.7-0.7-9.4-1.1-14.2-1.2c-45.9-0.1-86.6,29.7-100.3,73.4c-13.8,43.8,2.5,91.5,40.2,117.7c-39.5-42.3-37.3-108.7,5-148.2
		C135.1,200.7,159.8,190.6,185.6,190.1"/>
	<path clip-path="url(#SVGID_00000089538711317648931420000000329142632540709564_)" fill="#25F4EE" d="M188.1,342.9
		c25.7,0,46.8-20.2,47.9-45.9V68.2h41.8c-0.9-4.8-1.3-9.6-1.2-14.5h-57.2v228.6c-1,25.8-22.1,46.2-47.9,46.2
		c-7.7-0.1-15.3-2-22.1-5.5C158.4,335.5,172.8,342.9,188.1,342.9 M355.9,145.8v-12.7c-15.4,0-30.4-4.5-43.2-13.1
		C323.9,133.1,339.1,142.2,355.9,145.8"/>
	<path clip-path="url(#SVGID_00000089538711317648931420000000329142632540709564_)" fill="#FE2C55" d="M312.7,120.1
		c-12.6-14.4-19.6-32.9-19.6-52h-15.3C281.8,89.5,294.4,108.3,312.7,120.1 M171.4,232.5c-26.5,0.1-47.9,21.7-47.8,48.2
		c0.1,17.7,9.9,34,25.6,42.2c-15.5-21.4-10.7-51.4,10.7-66.9c8.2-5.9,18-9.1,28.1-9.1c4.8,0.1,9.6,0.8,14.2,2.2v-58.2
		c-4.7-0.7-9.4-1.1-14.2-1.1h-2.5v44.2C180.9,233,176.2,232.4,171.4,232.5"/>
	<path clip-path="url(#SVGID_00000089538711317648931420000000329142632540709564_)" fill="#FE2C55" d="M355.9,145.8v44.2
		c-28.5-0.1-56.2-9.1-79.3-25.8v116.2c-0.1,58-47.2,105-105.2,105c-21.5,0-42.6-6.6-60.2-19c39.5,42.4,105.9,44.9,148.3,5.4
		c21.4-19.8,33.5-47.7,33.5-76.8V179.1c23.2,16.6,50.9,25.5,79.4,25.4v-56.9C366.9,147.6,361.3,147,355.9,145.8"/>
	<path clip-path="url(#SVGID_00000089538711317648931420000000329142632540709564_)" fill="#FFFFFF" d="M276.6,280.5V164.3
		c23.1,16.6,50.9,25.5,79.4,25.4v-44.2c-16.8-3.6-32-12.5-43.4-25.4c-18.3-11.8-30.9-30.6-34.8-52H236v229
		c-1.1,26.5-23.4,47.1-49.9,46c-14.7-0.6-28.3-7.9-36.9-19.8c-23.5-12.3-32.5-41.4-20.1-64.8c8.3-15.7,24.5-25.6,42.2-25.6
		c4.8,0,9.6,0.8,14.2,2.2v-44.9c-57.9,1-104,49.4-103.1,107.3c0.4,26.2,10.7,51.3,28.7,70.4c17.8,12,38.8,18.2,60.3,17.8
		C229.4,385.5,276.5,338.6,276.6,280.5"/>
</g>
</svg>
